<svg xmlns="http://www.w3.org/2000/svg" xmlns:xlink="http://www.w3.org/1999/xlink" width="64" height="64" id="health"><defs><linearGradient id="b" x1="949.87" x2="974.39" y1="518.014" y2="544.657" gradientTransform="translate(126.044 209.167) scale(1.02524)" gradientUnits="userSpaceOnUse" xlink:href="#a"></linearGradient><linearGradient id="a"><stop offset="0" stop-color="#24f7bc"></stop><stop offset="1" stop-color="#24c4fc"></stop></linearGradient></defs><g transform="translate(-1095.612 -737.847)"><rect width="32" height="32" x="1095.612" y="737.846" fill="url(#b)" rx="6.763" ry="6.763"></rect><path style="text-indent:0;text-align:start;line-height:normal;text-transform:none;block-progression:tb;marker:none;-inkscape-font-specification:Sans" fill="#fff" d="M1106.904 744.953a5.3 5.3 0 0 0-5.292 5.292c0 2.025 1.28 4.14 3.087 6.247 1.807 2.108 4.161 4.208 6.541 5.99l.368.258.367-.257a53.628 53.628 0 0 0 2.389-1.911c.105-.097.224-.196.33-.294l-.036-.073-1.03-3.05-.44.918-.625 1.286a1.176 1.176 0 0 1-2.168-.147l-.441-1.36-.368-1.138a1.176 1.176 0 0 1-.073 0H1108.08c-1.032.014-1.764-.733-1.764-1.764 0-1.032.732-1.78 1.764-1.764h.441l.661-.625.662-.698a1.176 1.176 0 0 1 1.948.44l.147.442.44-.92.625-1.285a1.176 1.176 0 0 1 .882-.662 1.176 1.176 0 0 1 1.287.809l.44 1.36 1.03 3.05.44-.882v-.037l.148-.294a1.176 1.176 0 0 1 1.065-.698H1120.795c.013-.024.024-.05.037-.073h.037c.472-.965.732-1.933.735-2.866.01-2.919-2.376-5.292-5.292-5.292-2.08 0-3.837 1.225-4.704 2.976-.869-1.742-2.63-2.976-4.703-2.976zm7.166 6.1-.625 1.287-1.727 3.454-.735-2.205-.294-.918-.662.698-.992.992h-.955a.588.588 0 1 0 0 1.176H1109.513l.147-.184.514-.514.882 2.646.441 1.36.625-1.287 1.727-3.454 1.911 5.733.441 1.36.625-1.287 2.168-4.373h2.022a.588.588 0 1 0 0-1.176H1118.296l-.147.33-1.727 3.455-1.911-5.733-.441-1.36z" color="#000" font-family="Sans" font-weight="400" overflow="visible"></path></g></svg>